<svg width="16" height="17" viewBox="0 0 16 17" fill="none" xmlns="http://www.w3.org/2000/svg">
<path opacity="0.5" fill-rule="evenodd" clip-rule="evenodd" d="M6.28033 5.23139C5.98744 4.9385 5.51256 4.9385 5.21967 5.23139C4.92678 5.52428 4.92678 5.99916 5.21967 6.29205L7.18934 8.26172L5.21967 10.2314C4.92678 10.5243 4.92678 10.9992 5.21967 11.292C5.51256 11.5849 5.98744 11.5849 6.28033 11.292L8.25 9.32238L10.2197 11.292C10.5126 11.5849 10.9874 11.5849 11.2803 11.292C11.5732 10.9992 11.5732 10.5243 11.2803 10.2314L9.31066 8.26172L11.2803 6.29205C11.5732 5.99916 11.5732 5.52428 11.2803 5.23139C10.9874 4.9385 10.5126 4.9385 10.2197 5.23139L8.25 7.20106L6.28033 5.23139Z" fill="#6E328C"/>
</svg>
